{"glyphs":{" ":{"ha":694,"x_min":0,"x_max":0,"o":""},"A":{"ha":1667,"x_min":301,"x_max":1365,"o":"m 592 238 q 642 188 592 238 q 833 138 692 138 q 1075 238 975 138 q 1175 481 1175 339 q 1075 723 1175 622 q 833 824 975 824 q 592 723 692 824 q 492 481 492 622 q 592 238 492 339 m 610 964 q 833 1013 714 1013 q 1057 964 953 1013 l 1004 850 q 1129 758 1075 817 l 1221 844 q 1365 479 1365 689 q 1361 415 1365 447 l 1235 432 q 1188 283 1226 353 l 1299 221 q 1147 49 1242 118 q 933 -43 1051 -21 l 908 82 q 833 75 867 75 q 758 82 800 75 l 733 -43 q 520 49 615 -21 q 368 221 425 118 l 479 283 q 432 432 440 353 l 306 415 q 301 479 301 447 q 446 844 301 689 l 538 758 q 663 850 592 817 l 610 964 m 742 574 l 1131 574 q 1144 481 1144 528 q 1053 260 1144 351 q 833 169 963 169 q 662 221 739 169 q 549 356 585 272 l 928 356 q 943 371 943 356 q 928 388 943 388 l 536 388 q 522 481 522 429 q 613 701 522 610 q 833 792 704 792 q 1004 740 928 792 q 1118 606 1081 689 l 742 606 q 726 589 726 606 q 742 574 726 574 z "},"B":{"ha":1667,"x_min":385,"x_max":1282,"o":"m 1017 892 l 833 574 l 650 892 l 729 1022 l 808 892 l 858 892 l 938 1022 l 1017 892 m 878 753 l 789 753 l 833 675 l 878 753 m 849 -57 l 833 -57 l 818 -57 l 818 194 l 786 194 l 786 -49 q 754 -32 768 -42 l 754 194 l 722 194 l 722 -3 q 701 29 711 11 q 671 99 688 54 q 640 172 654 143 q 583 247 626 201 q 469 340 540 293 l 385 1039 l 531 808 l 671 808 l 722 719 l 621 719 l 639 688 l 740 688 l 769 638 l 668 638 l 686 606 l 788 606 l 833 526 l 879 606 l 981 606 l 999 638 l 897 638 l 926 688 l 1028 688 l 1046 719 l 944 719 l 996 808 l 1136 808 l 1282 1039 l 1197 340 q 1083 247 1126 293 q 1026 172 1040 201 q 996 99 1013 143 q 965 29 979 54 q 944 -3 956 11 l 944 194 l 913 194 l 913 -32 q 881 -49 899 -42 l 881 194 l 849 194 l 849 -57 m 843 368 l 824 368 l 554 454 l 688 304 l 740 363 l 818 339 l 849 339 l 926 363 l 979 304 l 1113 454 l 843 368 z "},"C":{"ha":1667,"x_min":278,"x_max":1389,"o":"m 1207 888 q 1130 965 1207 888 q 833 1042 1053 1042 q 460 888 614 1042 q 306 514 306 733 q 460 140 306 294 q 833 -14 614 -14 q 1207 140 1053 -14 q 1361 514 1361 294 q 1207 888 1361 733 m 1226 121 q 1145 40 1226 121 q 833 -42 1064 -42 q 440 121 603 -42 q 278 514 278 283 q 440 907 278 744 q 833 1069 603 1069 q 1226 907 1064 1069 q 1389 514 1389 744 q 1226 121 1389 283 m 763 979 q 772 1003 763 993 q 794 1013 782 1013 q 818 1003 808 1013 q 828 979 828 993 q 818 957 828 967 q 794 947 808 947 q 772 957 782 947 q 763 979 763 967 m 703 953 q 713 976 703 967 q 735 986 722 986 q 758 976 749 986 q 768 953 768 967 q 758 931 768 940 q 735 921 749 921 q 713 931 722 921 q 703 953 703 940 m 639 939 q 649 963 639 953 q 671 972 658 972 q 694 963 685 972 q 704 939 704 953 q 694 917 704 926 q 671 907 685 907 q 649 917 658 907 q 639 939 639 926 m 582 908 q 592 932 582 922 q 614 942 601 942 q 638 932 628 942 q 647 908 647 922 q 638 886 647 896 q 614 876 628 876 q 592 886 601 876 q 582 908 582 896 m 500 848 q 569 917 500 848 q 833 986 638 986 q 1167 848 1029 986 q 1304 514 1304 710 q 1167 181 1304 318 q 833 43 1029 43 q 500 181 638 43 q 363 514 363 318 q 500 848 363 710 m 524 881 q 533 904 524 894 q 556 914 543 914 q 579 904 569 914 q 589 881 589 894 q 579 858 589 868 q 556 849 569 849 q 533 858 543 849 q 524 881 524 868 m 482 831 q 492 854 482 844 q 514 864 501 864 q 538 854 528 864 q 547 831 547 844 q 538 808 547 818 q 514 799 528 799 q 492 808 501 799 q 482 831 482 818 m 431 792 q 440 815 431 806 q 463 825 450 825 q 486 815 476 825 q 496 792 496 806 q 486 769 496 779 q 463 760 476 760 q 440 769 450 760 q 431 792 431 779 m 401 733 q 411 757 401 747 q 433 767 421 767 q 457 757 447 767 q 467 733 467 747 q 457 711 467 721 q 433 701 447 701 q 411 711 421 701 q 401 733 401 721 m 365 679 q 375 703 365 693 q 397 713 385 713 q 421 703 411 713 q 431 679 431 693 q 421 657 431 667 q 397 647 411 647 q 375 657 385 647 q 365 679 365 667 m 363 614 q 372 638 363 628 q 394 647 382 647 q 418 638 408 647 q 428 614 428 628 q 418 592 428 601 q 394 582 408 582 q 372 592 382 582 q 363 614 363 601 m 336 554 q 346 578 336 568 q 368 588 356 588 q 392 578 382 588 q 401 554 401 568 q 392 532 401 542 q 368 522 382 522 q 346 532 356 522 q 336 554 336 542 m 349 490 q 358 514 349 504 q 381 524 368 524 q 404 514 394 524 q 414 490 414 504 q 404 468 414 478 q 381 458 394 458 q 358 468 368 458 q 349 490 349 478 m 349 425 q 358 449 349 439 q 381 458 368 458 q 404 449 394 458 q 414 425 414 439 q 404 403 414 413 q 381 393 394 393 q 358 403 368 393 q 349 425 349 413 m 378 367 q 388 390 378 381 q 410 400 397 400 q 433 390 424 400 q 443 367 443 381 q 433 344 443 354 q 410 335 424 335 q 388 344 397 335 q 378 367 378 354 m 393 303 q 403 326 393 317 q 425 336 413 336 q 449 326 439 336 q 458 303 458 317 q 449 281 458 290 q 425 271 439 271 q 403 281 413 271 q 393 303 393 290 m 433 253 q 443 276 433 267 q 465 286 453 286 q 489 276 479 286 q 499 253 499 267 q 489 231 499 240 q 465 221 479 221 q 443 231 453 221 q 433 253 433 240 m 464 196 q 474 219 464 210 q 496 229 483 229 q 519 219 510 229 q 529 196 529 210 q 519 174 529 183 q 496 164 510 164 q 474 174 483 164 q 464 196 464 183 m 521 161 q 531 185 521 175 q 553 194 540 194 q 576 185 567 194 q 586 161 586 175 q 576 139 586 149 q 553 129 567 129 q 531 139 540 129 q 521 161 521 149 m 572 119 q 582 143 572 133 q 604 153 592 153 q 628 143 618 153 q 638 119 638 133 q 628 97 638 107 q 604 88 618 88 q 582 97 592 88 q 572 119 572 107 m 632 94 q 642 118 632 108 q 664 128 651 128 q 688 118 678 128 q 697 94 697 108 q 688 72 697 82 q 664 63 678 63 q 642 72 651 63 q 632 94 632 82 m 690 65 q 700 89 690 79 q 722 99 710 99 q 746 89 736 99 q 756 65 756 79 q 746 43 756 53 q 722 33 736 33 q 700 43 710 33 q 690 65 690 53 m 822 903 q 815 929 815 911 q 819 958 815 950 q 515 823 640 953 q 389 514 389 693 q 515 203 389 332 q 822 69 640 74 q 815 96 815 78 q 819 125 815 117 q 553 243 663 131 q 444 514 444 356 q 556 782 444 669 q 822 903 667 894 m 757 63 q 767 86 757 76 q 789 96 776 96 q 813 86 803 96 q 822 63 822 76 q 813 40 822 50 q 789 31 803 31 q 767 40 776 31 q 757 63 757 50 m 904 979 q 894 957 904 967 q 872 947 885 947 q 849 957 858 947 q 839 979 839 967 q 849 1003 839 993 q 872 1013 858 1013 q 894 1003 885 1013 q 904 979 904 993 m 964 953 q 954 931 964 940 q 932 921 944 921 q 908 931 918 921 q 899 953 899 940 q 908 976 899 967 q 932 986 918 986 q 954 976 944 986 q 964 953 964 967 m 1028 939 q 1018 917 1028 926 q 996 907 1008 907 q 972 917 982 907 q 963 939 963 926 q 972 963 963 953 q 996 972 982 972 q 1018 963 1008 972 q 1028 939 1028 953 m 1085 908 q 1075 886 1085 896 q 1053 876 1065 876 q 1029 886 1039 876 q 1019 908 1019 896 q 1029 932 1019 922 q 1053 942 1039 942 q 1075 932 1065 942 q 1085 908 1085 922 m 1143 881 q 1133 858 1143 868 q 1111 849 1124 849 q 1088 858 1097 849 q 1078 881 1078 868 q 1088 904 1078 894 q 1111 914 1097 914 q 1133 904 1124 914 q 1143 881 1143 894 m 1185 831 q 1175 808 1185 818 q 1153 799 1165 799 q 1129 808 1139 799 q 1119 831 1119 818 q 1129 854 1119 844 q 1153 864 1139 864 q 1175 854 1165 864 q 1185 831 1185 844 m 1236 792 q 1226 769 1236 779 q 1204 760 1217 760 q 1181 769 1190 760 q 1171 792 1171 779 q 1181 815 1171 806 q 1204 825 1190 825 q 1226 815 1217 825 q 1236 792 1236 806 m 1265 733 q 1256 711 1265 721 q 1233 701 1246 701 q 1210 711 1219 701 q 1200 733 1200 721 q 1210 757 1200 747 q 1233 767 1219 767 q 1256 757 1246 767 q 1265 733 1265 747 m 1301 679 q 1292 657 1301 667 q 1269 647 1282 647 q 1246 657 1256 647 q 1236 679 1236 667 q 1246 703 1236 693 q 1269 713 1256 713 q 1292 703 1282 713 q 1301 679 1301 693 m 1304 614 q 1294 592 1304 601 q 1272 582 1285 582 q 1249 592 1258 582 q 1239 614 1239 601 q 1249 638 1239 628 q 1272 647 1258 647 q 1294 638 1285 647 q 1304 614 1304 628 m 1331 554 q 1321 532 1331 542 q 1299 522 1311 522 q 1275 532 1285 522 q 1265 554 1265 542 q 1275 578 1265 568 q 1299 588 1285 588 q 1321 578 1311 588 q 1331 554 1331 568 m 1318 490 q 1308 468 1318 478 q 1286 458 1299 458 q 1263 468 1272 458 q 1253 490 1253 478 q 1263 514 1253 504 q 1286 524 1272 524 q 1308 514 1299 524 q 1318 490 1318 504 m 1318 425 q 1308 403 1318 413 q 1286 393 1299 393 q 1263 403 1272 393 q 1253 425 1253 413 q 1263 449 1253 439 q 1286 458 1272 458 q 1308 449 1299 458 q 1318 425 1318 439 m 1289 367 q 1279 344 1289 354 q 1257 335 1269 335 q 1233 344 1243 335 q 1224 367 1224 354 q 1233 390 1224 381 q 1257 400 1243 400 q 1279 390 1269 400 q 1289 367 1289 381 m 1274 303 q 1264 281 1274 290 q 1242 271 1254 271 q 1218 281 1228 271 q 1208 303 1208 290 q 1218 326 1208 317 q 1242 336 1228 336 q 1264 326 1254 336 q 1274 303 1274 317 m 1233 253 q 1224 231 1233 240 q 1201 221 1214 221 q 1178 231 1188 221 q 1168 253 1168 240 q 1178 276 1168 267 q 1201 286 1188 286 q 1224 276 1214 286 q 1233 253 1233 267 m 1203 196 q 1193 174 1203 183 q 1171 164 1183 164 q 1147 174 1157 164 q 1138 196 1138 183 q 1147 219 1138 210 q 1171 229 1157 229 q 1193 219 1183 229 q 1203 196 1203 210 m 1146 161 q 1136 139 1146 149 q 1114 129 1126 129 q 1090 139 1100 129 q 1081 161 1081 149 q 1090 185 1081 175 q 1114 194 1100 194 q 1136 185 1126 194 q 1146 161 1146 175 m 1094 119 q 1085 97 1094 107 q 1063 88 1075 88 q 1039 97 1049 88 q 1029 119 1029 107 q 1039 143 1029 133 q 1063 153 1049 153 q 1085 143 1075 153 q 1094 119 1094 133 m 1035 94 q 1025 72 1035 82 q 1003 63 1015 63 q 979 72 989 63 q 969 94 969 82 q 979 118 969 108 q 1003 128 989 128 q 1025 118 1015 128 q 1035 94 1035 108 m 976 65 q 967 43 976 53 q 944 33 957 33 q 921 43 931 33 q 911 65 911 53 q 921 89 911 79 q 944 99 931 99 q 967 89 957 99 q 976 65 976 79 m 844 903 q 1111 782 1000 894 q 1222 514 1222 669 q 1113 243 1222 356 q 847 125 1004 131 q 851 96 851 117 q 844 69 851 78 q 1152 203 1026 74 q 1278 514 1278 332 q 1152 823 1278 693 q 847 958 1026 953 q 851 929 851 950 q 844 903 851 911 m 910 63 q 900 40 910 50 q 878 31 890 31 q 854 40 864 31 q 844 63 844 50 q 854 86 844 76 q 878 96 864 96 q 900 86 890 96 q 910 63 910 76 z "},"D":{"ha":1667,"x_min":253,"x_max":1414,"o":"m 544 140 q 833 31 676 31 q 1122 140 990 31 l 1122 194 l 1318 264 l 1331 557 l 1306 571 l 1376 928 l 1093 928 l 1078 890 q 904 911 1013 921 l 899 958 l 768 958 l 763 911 q 589 890 654 921 l 574 928 l 290 928 l 361 571 l 336 557 l 349 264 l 544 194 l 544 140 m 746 989 l 921 989 l 928 942 q 1063 928 1006 944 l 1075 960 l 1414 960 l 1339 586 l 1363 572 l 1347 243 l 1153 172 l 1153 124 q 833 -1 1001 -1 q 514 124 665 -1 l 514 172 l 319 243 l 304 572 l 328 586 l 253 960 l 592 960 l 604 928 q 739 942 661 944 l 746 989 m 328 896 l 390 588 q 454 625 454 622 l 414 806 l 581 831 l 553 896 l 328 896 m 619 815 l 457 782 l 544 528 l 764 528 l 764 560 l 719 631 l 760 885 q 599 865 667 893 l 619 815 m 776 829 l 890 829 l 879 925 l 788 925 l 776 829 m 760 707 l 907 707 l 893 797 l 774 797 l 760 707 m 833 529 l 854 556 q 894 608 875 582 l 915 635 l 911 675 l 756 675 l 751 635 q 755 630 753 633 q 764 618 757 626 q 777 601 771 610 q 792 581 783 592 q 807 562 800 571 q 820 545 814 553 q 831 533 826 538 l 833 529 m 833 335 l 893 365 l 867 499 l 800 499 l 774 365 l 833 335 m 576 417 l 581 158 q 814 65 665 85 l 814 303 l 576 417 m 468 594 l 368 540 l 376 289 l 544 232 l 544 432 l 468 594 m 1339 896 l 1276 588 q 1213 625 1213 622 l 1253 806 l 1086 831 l 1114 896 l 1339 896 m 1047 815 l 1210 782 l 1122 528 l 903 528 l 903 560 l 947 631 l 907 885 q 1068 865 1000 893 l 1047 815 m 1090 417 l 1086 158 q 853 65 1001 85 l 853 303 l 1090 417 m 1199 594 l 1299 540 l 1290 289 l 1122 232 l 1122 432 l 1199 594 z "},"E":{"ha":1667,"x_min":246,"x_max":1421,"o":"m 961 760 l 833 501 l 706 760 l 732 760 l 833 979 l 935 760 l 961 760 m 833 76 l 636 426 l 788 344 l 833 463 l 879 344 l 1031 426 l 833 76 m 833 647 l 878 746 l 833 851 l 789 746 l 833 647 m 711 789 l 658 789 l 679 747 l 417 747 l 569 474 l 486 325 l 317 497 l 418 949 l 586 847 l 739 847 l 711 789 m 693 717 l 807 483 l 565 550 l 469 717 l 693 717 m 586 442 l 815 44 l 458 219 l 586 442 m 1008 789 l 956 789 l 928 847 l 1081 847 l 1249 949 l 1350 497 l 1181 325 l 1097 474 l 1250 747 l 988 747 l 1008 789 m 860 483 l 974 717 l 1197 717 l 1101 550 l 860 483 m 851 44 l 1081 442 l 1208 219 l 851 44 m 833 -3 l 1247 207 l 1199 296 l 1383 490 l 1268 997 l 1074 878 l 913 878 l 833 1044 l 754 878 l 593 878 l 399 997 l 283 490 l 468 296 l 419 207 l 833 -3 m 246 479 l 375 1044 l 610 908 l 735 908 l 833 1118 l 932 908 l 1057 908 l 1292 1044 l 1421 479 l 1238 288 l 1292 192 l 833 -40 l 375 192 l 429 288 l 246 479 z "},"F":{"ha":1667,"x_min":-17,"x_max":1683,"o":"m 1067 657 l 833 503 l 600 657 l 597 694 q 833 750 708 750 q 1069 694 958 750 l 1067 657 m 922 660 q 833 674 881 674 q 744 660 786 674 l 833 600 l 922 660 m 882 188 l 785 188 l 785 356 l 769 511 l 833 468 l 897 511 l 882 356 l 882 188 m 740 528 l 754 383 l 601 383 l 476 469 l 461 693 l 563 693 l 565 644 l 740 528 m 542 518 l 546 489 l 710 408 l 707 440 l 542 518 m 535 597 l 538 567 l 703 489 l 699 518 l 535 597 m 532 108 l 511 410 l 582 361 l 582 333 l 642 292 l 642 46 l 532 108 m 754 160 l 913 160 l 913 329 l 992 289 l 992 26 l 953 4 l 904 119 l 763 119 l 714 4 l 675 26 l 675 289 l 754 329 l 754 160 m 786 92 l 881 92 l 917 0 l 750 0 l 786 92 m -7 811 l -17 953 l 429 693 l 439 551 l -7 811 m 6 632 l -4 774 l 438 517 l 442 457 l 479 431 l 485 354 l 6 632 m 18 454 l 8 596 l 488 317 l 497 175 l 18 454 m 913 383 l 926 528 l 1101 644 l 1104 693 l 1206 693 l 1190 469 l 1065 383 l 913 383 m 1121 489 l 1125 518 l 960 440 l 957 408 l 1121 489 m 1129 567 l 1132 597 l 968 518 l 964 489 l 1129 567 m 1156 410 l 1135 108 l 1025 46 l 1025 292 l 1085 333 l 1085 361 l 1156 410 m 1683 953 l 1674 811 l 1228 551 l 1238 693 l 1683 953 m 1671 774 l 1661 632 l 1182 354 l 1188 431 l 1225 457 l 1229 517 l 1671 774 m 1658 596 l 1649 454 l 1169 175 l 1179 317 l 1658 596 z "},"G":{"ha":1667,"x_min":31,"x_max":1635,"o":"m 832 653 l 531 851 l 526 901 q 832 972 671 972 q 1139 901 994 972 l 1135 851 l 832 653 m 718 856 l 832 778 l 947 856 q 832 874 893 874 q 718 856 772 874 m 768 246 l 768 463 l 749 664 l 832 607 l 917 664 l 897 463 l 897 246 l 768 246 m 711 685 l 729 497 l 532 497 l 383 610 l 322 899 l 481 899 l 485 836 l 711 685 m 456 672 l 461 633 l 672 532 l 668 572 l 456 672 m 446 775 l 450 735 l 663 633 l 657 672 l 446 775 m 1210 672 l 1204 633 l 993 532 l 997 572 l 1210 672 m 1219 775 l 1215 735 l 1003 633 l 1008 672 l 1219 775 m 415 533 l 436 221 l 585 88 l 585 381 l 508 433 l 508 469 l 415 533 m 1250 533 l 1229 221 l 1081 88 l 1081 381 l 1157 433 l 1157 469 l 1250 533 m 925 158 l 988 8 l 1038 49 l 1038 376 l 936 428 l 936 210 l 729 210 l 729 428 l 628 376 l 628 49 l 678 8 l 740 158 l 925 158 m 725 3 l 940 3 l 894 124 l 771 124 l 725 3 m 954 685 l 936 497 l 1133 497 l 1282 610 l 1343 899 l 1185 899 l 1181 836 l 954 685 m 389 261 l 31 581 l 31 814 l 349 582 l 389 261 m 681 -36 l 985 -36 l 832 -231 l 681 -36 m 1276 261 l 1635 581 l 1635 814 l 1317 582 l 1276 261 z "},"H":{"ha":1667,"x_min":307,"x_max":1360,"o":"m 833 550 l 719 626 l 717 646 q 833 672 772 672 q 950 646 897 672 l 949 626 l 833 550 m 790 628 l 833 599 l 878 628 q 833 635 854 635 q 790 628 814 635 m 810 396 l 810 478 l 801 554 l 833 533 l 867 554 l 858 478 l 858 396 l 810 396 m 788 563 l 794 488 l 719 488 l 658 535 l 635 644 l 700 644 l 701 621 l 788 563 m 874 488 l 881 563 l 967 621 l 968 644 l 1033 644 l 1010 535 l 949 488 l 874 488 m 690 558 l 692 543 l 772 504 l 771 519 l 690 558 m 686 597 l 689 582 l 769 543 l 767 558 l 686 597 m 975 543 l 978 558 l 897 519 l 894 504 l 975 543 m 979 582 l 981 597 l 901 558 l 899 543 l 979 582 m 683 386 l 675 506 l 710 481 l 710 467 l 738 446 l 738 335 l 683 386 m 993 506 l 985 386 l 928 335 l 928 446 l 958 467 l 958 481 l 993 506 m 893 304 l 869 363 l 799 363 l 775 304 l 756 319 l 756 444 l 794 465 l 794 382 l 874 382 l 874 465 l 913 444 l 913 319 l 893 304 m 875 303 l 793 303 l 811 349 l 857 349 l 875 303 m 981 844 l 933 779 q 833 794 885 794 q 736 779 785 794 l 686 844 l 532 728 l 582 663 q 528 488 528 581 l 528 474 l 451 444 l 521 264 l 597 293 q 738 197 653 225 l 738 115 l 929 115 l 929 197 q 1069 293 1014 225 l 1146 264 l 1215 444 l 1139 474 l 1139 488 q 1085 663 1139 581 l 1135 728 l 981 844 m 929 -36 l 738 -36 l 689 92 q 513 215 583 131 l 374 215 l 307 394 l 413 482 l 413 488 q 479 717 413 614 l 439 850 l 593 967 l 708 889 q 833 908 769 908 q 958 889 897 908 l 1074 967 l 1228 850 l 1188 717 q 1254 488 1254 614 l 1254 482 l 1360 394 l 1293 215 l 1154 215 q 978 92 1083 131 l 929 -36 z "},"a":{"ha":1667,"x_min":290,"x_max":1376,"o":"m 833 675 l 519 882 l 515 933 q 833 1007 665 1007 q 1151 933 1001 1007 l 1147 882 l 833 675 m 714 886 l 833 806 l 953 886 q 833 904 897 904 q 714 886 769 904 m 767 253 l 767 478 l 746 686 l 833 628 l 921 686 l 900 478 l 900 253 l 767 253 m 707 708 l 726 514 l 521 514 l 354 631 l 290 931 l 468 931 l 472 865 l 707 708 m 960 708 l 940 514 l 1146 514 l 1313 631 l 1376 931 l 1199 931 l 1194 865 l 960 708 m 442 696 l 447 656 l 667 550 l 663 592 l 442 696 m 432 801 l 436 760 l 657 656 l 651 696 l 432 801 m 1225 696 l 1219 656 l 1000 550 l 1004 592 l 1225 696 m 1235 801 l 1231 760 l 1010 656 l 1015 696 l 1235 801 m 400 551 l 422 226 l 576 88 l 576 392 l 496 447 l 496 485 l 400 551 m 1267 551 l 1244 226 l 1090 88 l 1090 392 l 1171 447 l 1171 485 l 1267 551 m 929 161 l 994 6 l 1046 47 l 1046 388 l 940 442 l 940 215 l 726 215 l 726 442 l 621 388 l 621 47 l 672 6 l 738 161 l 929 161 m 721 0 l 946 0 l 897 125 l 769 125 l 721 0 z "},"b":{"ha":1667,"x_min":290,"x_max":1376,"o":"m 1213 865 l 1376 1054 l 1322 614 l 833 33 l 344 614 l 290 1054 l 454 865 l 622 811 l 642 710 l 464 767 l 474 715 l 653 656 l 664 590 l 486 647 l 496 594 l 697 526 l 833 375 l 969 526 l 1171 594 l 1181 647 l 1003 590 l 1014 656 l 1193 715 l 1203 767 l 1025 710 l 1044 811 l 1213 865 m 793 476 l 713 571 l 626 1025 l 785 854 l 882 854 l 1040 1025 l 954 571 l 874 476 l 793 476 m 385 493 l 796 0 l 435 113 l 385 493 m 1282 493 l 871 0 l 1232 113 l 1282 493 m 833 574 l 889 738 l 778 738 l 833 574 m 747 229 l 785 342 l 594 422 l 747 229 m 882 342 l 919 229 l 1072 422 l 882 342 z "},"c":{"ha":1667,"x_min":474,"x_max":1193,"o":"m 833 253 q 1075 460 914 424 q 1005 713 1075 615 q 833 810 935 810 q 662 713 732 810 q 592 460 592 615 q 833 253 753 424 m 814 247 l 813 -153 q 488 426 750 192 q 474 544 474 482 q 497 726 474 640 q 547 860 519 811 q 609 964 574 908 q 654 1042 644 1019 q 714 796 668 865 q 633 714 668 768 l 633 769 q 622 864 633 864 q 592 674 601 838 q 557 453 582 511 q 814 247 667 401 m 853 247 l 854 -153 q 1179 426 917 192 q 1193 544 1193 482 q 1170 726 1193 640 q 1120 860 1147 811 q 1058 964 1093 908 q 1013 1042 1022 1019 q 953 796 996 861 q 1033 714 999 768 l 1033 769 q 1044 864 1033 864 q 1075 674 1065 838 q 1110 453 1085 511 q 853 247 996 400 z "},"d":{"ha":1667,"x_min":292,"x_max":1375,"o":"m 892 569 q 880 581 892 569 q 833 593 868 593 q 774 569 799 593 q 750 508 750 544 l 356 551 l 360 585 l 292 599 q 497 944 325 811 l 540 888 q 833 988 671 988 q 1126 888 996 988 l 1169 944 q 1375 599 1342 811 l 1307 585 l 1311 551 l 917 508 q 892 569 917 544 m 326 619 l 617 564 q 674 671 632 628 l 494 903 q 326 619 363 790 m 794 469 q 786 477 794 469 q 778 508 778 485 q 794 549 778 532 q 833 565 810 565 q 874 549 857 565 q 890 508 890 532 q 874 469 890 485 q 833 453 857 453 q 794 469 810 453 m 893 296 q 833 288 867 288 q 774 296 800 288 l 663 24 q 833 -7 747 -7 q 1004 24 919 -7 l 893 296 m 1042 6 q 833 -35 942 -35 q 625 6 725 -35 l 650 65 q 624 78 640 69 q 509 270 576 188 q 369 390 442 353 q 360 438 367 403 q 756 479 556 475 q 833 425 775 425 q 911 479 892 425 q 1307 438 1111 475 q 1297 390 1300 403 q 1158 270 1225 353 q 1043 78 1090 188 q 1017 65 1026 69 l 1042 6 m 1050 564 l 1340 619 q 1172 903 1304 790 l 993 671 q 1050 564 1035 628 z "},"e":{"ha":1667,"x_min":296,"x_max":1371,"o":"m 865 -3 l 832 -28 q 810 99 810 29 q 811 129 810 121 q 660 242 718 163 q 601 424 601 322 q 693 643 601 551 q 913 735 785 735 q 1124 650 1035 735 q 1222 443 1214 565 q 1371 379 1300 432 l 1336 354 q 1158 411 1265 411 q 968 344 1051 411 q 849 103 849 249 q 865 -3 849 50 m 960 811 l 861 811 l 888 1042 l 936 1042 l 960 811 m 678 736 l 606 664 l 463 846 l 496 879 l 678 736 m 525 478 l 525 375 l 296 401 l 296 450 l 525 478 m 603 185 l 676 114 l 494 -31 l 461 6 l 603 185 m 1225 658 l 1153 729 l 1333 874 l 1368 838 l 1225 658 z "},"f":{"ha":1667,"x_min":325,"x_max":1342,"o":"m 515 497 l 621 488 q 678 560 639 532 q 764 589 717 589 q 819 579 797 589 l 897 656 q 764 693 836 693 q 606 638 675 693 q 515 497 536 582 m 757 182 l 756 286 q 666 322 707 286 q 614 414 625 358 l 508 422 q 585 253 514 322 q 757 182 657 185 m 911 400 l 1011 369 q 1019 438 1019 403 q 956 608 1019 536 l 881 533 q 915 438 915 489 q 911 400 915 419 m 793 15 l 774 74 l 768 74 q 503 180 610 74 q 397 439 397 286 q 448 624 397 539 q 583 757 499 710 l 563 810 l 578 917 q 371 768 451 869 l 325 822 q 779 1021 503 1021 l 832 856 l 971 983 q 1125 894 1051 953 l 1075 725 l 1261 740 q 1333 560 1314 653 l 1186 474 l 1342 368 q 1294 197 1332 283 l 1124 211 l 967 282 q 854 199 919 219 l 867 26 q 793 15 840 21 m 626 38 l 632 108 l 721 89 l 697 19 q 626 38 663 25 m 476 126 l 513 188 l 585 133 l 535 81 q 476 126 503 103 m 478 232 l 413 203 q 376 268 394 231 l 433 310 l 478 232 m 340 439 l 408 456 l 419 364 l 347 364 q 340 439 343 389 m 378 611 l 447 599 l 421 510 l 353 539 q 378 611 365 579 m 481 753 l 539 714 l 479 643 l 429 697 q 481 753 453 726 z "},"g":{"ha":1667,"x_min":275,"x_max":1390,"o":"m 479 250 l 375 165 q 275 485 275 310 q 283 583 275 536 q 479 250 319 379 m 1382 583 q 1390 485 1390 533 q 1301 183 1390 324 l 1201 264 q 1382 583 1349 393 m 649 192 l 1110 192 l 1181 50 q 1019 -40 1107 -10 l 1003 -6 l 715 -6 l 676 -51 q 510 29 586 -26 l 649 192 m 1150 307 l 1079 364 l 985 364 l 985 442 q 1238 867 1186 614 q 1256 696 1256 789 q 1150 307 1256 488 m 1031 1053 q 1047 893 1047 976 q 917 465 1047 657 l 917 360 l 826 281 l 636 281 l 579 507 q 872 724 751 579 q 1031 1053 992 868 z "},"h":{"ha":1667,"x_min":111,"x_max":1554,"o":"m 1015 1 l 999 -60 q 906 -67 961 -67 q 868 -65 881 -67 l 882 13 q 981 1 943 1 l 1015 1 m 808 32 l 758 -47 q 418 207 536 14 l 756 367 l 738 263 l 607 161 q 808 32 692 75 m 710 1042 l 746 1022 q 607 922 665 981 l 539 942 q 710 1042 614 1006 m 547 850 l 465 868 q 340 583 364 744 l 774 693 l 728 711 l 478 711 q 547 850 503 788 m 111 461 l 1028 694 l 1011 606 l 1554 806 l 1496 714 l 835 372 l 854 485 l 300 215 l 111 461 z "},"i":{"ha":1667,"x_min":542,"x_max":1125,"o":"m 928 993 l 833 872 l 739 993 q 833 1042 774 1042 q 928 993 893 1042 m 990 510 l 833 669 l 676 510 q 542 625 603 554 l 550 771 l 607 742 l 604 665 l 697 631 l 757 708 l 576 806 q 711 972 625 893 l 833 838 l 956 972 q 1090 806 1042 893 l 910 708 l 969 631 l 1063 665 l 1060 742 l 1117 771 l 1125 625 q 990 510 1064 554 m 833 599 l 961 468 q 833 -57 904 185 q 706 468 763 185 l 833 599 z "},"j":{"ha":1667,"x_min":174,"x_max":1493,"o":"m 833 682 l 882 796 l 785 796 l 833 682 m 785 831 l 882 831 l 1000 921 l 1000 971 l 1121 821 l 833 629 l 546 821 l 667 971 l 667 921 l 785 831 m 833 0 q 1308 288 1056 194 l 1292 432 l 1221 463 l 1221 649 l 1394 497 l 1415 315 l 1493 576 l 1225 807 l 1190 857 l 1171 796 l 882 600 l 857 375 l 1146 399 l 944 242 l 904 329 l 854 329 l 833 214 l 813 329 l 763 329 l 722 242 l 521 399 l 810 375 l 785 600 l 496 796 l 476 857 l 442 807 l 174 576 l 251 315 l 272 497 l 446 649 l 446 463 l 375 432 l 358 288 q 833 0 611 194 z "},"k":{"ha":1667,"x_min":432,"x_max":1235,"o":"m 935 388 q 833 328 901 328 q 732 388 765 328 l 732 497 q 747 606 732 531 q 788 813 761 682 q 833 1042 815 943 q 878 813 851 943 q 920 606 906 682 q 935 497 935 531 l 935 388 m 906 1 l 833 1 l 761 1 q 610 222 650 96 l 640 268 l 643 335 l 546 403 l 531 604 l 515 636 l 494 629 l 432 699 q 458 879 435 804 q 557 774 501 836 l 650 850 l 761 840 q 704 549 713 592 l 621 607 l 565 568 l 621 488 l 631 533 l 696 511 l 701 381 q 755 320 719 343 q 833 297 790 297 q 912 320 876 297 q 965 381 947 343 l 971 511 l 1036 533 l 1046 488 l 1101 568 l 1046 607 l 963 549 q 906 840 954 592 l 1017 850 l 1110 774 q 1208 879 1165 836 q 1235 699 1232 804 l 1172 629 l 1151 636 l 1136 604 l 1121 403 l 1024 335 l 1026 268 l 1057 222 q 906 1 1017 96 m 788 131 l 738 282 l 690 222 l 788 131 m 929 282 l 879 131 l 976 222 l 929 282 z "},"l":{"ha":1667,"x_min":340,"x_max":1326,"o":"m 903 476 l 764 476 l 815 361 l 704 381 l 704 254 l 614 363 l 629 240 l 567 3 q 439 201 479 122 l 488 351 l 396 235 q 340 425 353 317 l 471 542 l 358 658 l 461 972 q 621 751 588 808 l 592 647 l 546 599 q 587 582 561 593 q 629 565 613 571 q 682 554 646 560 q 765 549 718 549 l 622 654 l 658 781 q 833 832 719 832 q 1008 781 947 832 l 1044 654 l 901 549 q 997 555 963 549 q 1073 578 1032 561 q 1121 599 1114 596 l 1075 647 l 1046 751 q 1206 972 1079 808 l 1308 658 l 1196 542 l 1326 425 q 1271 235 1314 317 l 1179 351 l 1228 201 q 1100 3 1188 122 l 1038 240 l 1053 363 l 963 254 l 963 381 l 851 361 l 903 476 m 876 0 l 790 0 q 660 43 743 0 l 668 240 l 743 85 l 924 85 l 999 240 l 1007 43 q 876 0 924 0 z "},"m":{"ha":1667,"x_min":358,"x_max":1308,"o":"m 689 825 l 658 928 q 519 835 585 896 q 593 754 554 803 q 689 825 639 792 m 682 938 q 833 964 754 964 q 985 938 913 964 l 956 832 l 833 757 l 711 832 l 682 938 m 572 739 l 547 501 l 483 546 q 479 421 479 499 q 481 310 479 360 q 485 219 482 261 q 491 149 489 176 q 500 87 493 122 q 510 35 507 51 q 523 -19 514 19 q 535 -74 532 -58 l 403 172 q 358 532 358 346 q 360 604 358 579 q 501 817 404 717 q 572 739 560 758 m 524 482 l 507 494 l 507 458 q 539 114 507 264 l 632 40 l 651 75 l 628 117 l 628 217 q 621 414 628 303 l 579 443 l 567 401 l 564 454 l 539 472 l 531 410 l 524 482 m 793 447 l 874 447 l 849 369 l 936 392 l 944 213 l 1017 424 l 1093 483 l 1081 607 l 1031 582 l 1007 500 l 951 475 l 858 522 l 1078 640 l 1069 724 l 960 804 l 833 728 l 707 804 l 597 724 l 589 640 l 808 522 l 715 475 l 660 500 l 636 582 l 586 607 l 574 483 l 650 424 l 722 213 l 731 392 l 818 369 l 793 447 m 726 4 q 833 -17 792 -17 q 940 4 875 -17 l 940 -46 l 957 -8 q 990 64 974 28 l 1007 101 l 994 269 l 947 133 l 719 133 l 672 269 l 660 101 q 665 90 661 97 q 677 64 668 83 q 694 27 686 44 q 709 -8 701 10 q 722 -36 717 -25 l 726 -46 l 726 4 m 978 825 l 1008 928 q 1147 835 1082 896 q 1074 754 1113 803 q 978 825 1028 792 m 1094 739 l 1119 501 l 1183 546 q 1188 421 1188 497 q 1186 310 1188 360 q 1181 219 1185 261 q 1176 149 1178 176 q 1167 87 1174 122 q 1156 35 1160 51 q 1144 -19 1153 19 q 1132 -74 1135 -58 l 1264 172 q 1308 532 1308 346 q 1307 604 1308 579 q 1165 817 1263 717 q 1094 739 1107 758 m 1143 482 l 1160 494 l 1160 458 q 1128 114 1160 264 l 1035 40 l 1015 75 l 1039 117 l 1039 217 q 1046 414 1039 303 l 1088 443 l 1100 401 l 1103 454 l 1128 472 l 1136 410 l 1143 482 z "},"n":{"ha":1667,"x_min":293,"x_max":1374,"o":"m 636 676 q 833 726 717 726 q 1031 676 950 726 l 990 578 l 833 504 l 676 578 l 636 676 m 903 24 l 764 24 l 749 114 l 701 97 l 704 15 q 626 94 688 29 l 667 193 l 781 219 q 788 268 786 261 l 788 406 l 610 507 l 618 417 l 340 371 l 488 493 q 293 615 374 554 q 531 1043 369 900 q 453 757 460 888 q 480 745 461 753 q 506 733 499 738 q 529 722 514 729 q 551 710 544 715 q 568 699 558 706 q 583 685 578 692 q 593 671 589 678 l 647 561 l 833 481 l 1019 561 l 1074 671 q 1083 685 1078 678 q 1099 699 1089 692 q 1115 710 1108 706 q 1138 722 1122 715 q 1160 733 1153 729 q 1187 745 1168 738 q 1214 757 1206 753 q 1136 1043 1207 888 q 1374 615 1297 900 q 1179 493 1293 554 l 1326 371 l 1049 417 l 1057 507 l 879 406 l 879 268 q 886 219 881 261 l 1000 193 l 1040 94 q 963 15 979 29 l 965 97 l 918 114 l 903 24 m 625 386 l 647 328 l 746 318 l 754 258 l 661 243 l 600 135 q 513 367 549 236 l 625 386 m 871 -65 l 833 -65 l 796 -65 l 769 1 l 897 1 l 871 -65 m 1019 328 l 1042 386 l 1154 367 q 1067 135 1118 236 l 1006 243 l 913 258 l 921 318 l 1019 328 z "},"o":{"ha":1667,"x_min":426,"x_max":1240,"o":"m 933 210 q 922 212 933 210 q 833 214 911 214 q 734 210 756 214 q 700 190 713 207 q 660 -28 667 146 q 626 144 626 49 q 657 335 626 258 q 454 539 597 475 q 426 693 426 551 q 447 1043 426 789 l 583 794 q 689 842 643 832 q 833 851 735 851 q 978 842 932 851 q 1083 794 1024 832 l 1219 1043 q 1240 693 1240 789 q 1213 539 1240 551 q 1010 335 1069 475 q 1040 144 1040 258 q 1007 -28 1040 49 q 967 190 1000 146 q 933 210 954 207 m 446 499 q 508 457 482 478 q 493 371 493 404 q 496 338 493 360 q 457 398 468 364 q 446 499 446 432 m 547 296 q 519 372 519 324 q 531 439 519 399 q 571 397 554 418 q 547 296 547 344 m 588 376 q 621 321 610 343 q 601 247 601 296 l 601 233 q 575 313 575 263 q 588 376 575 333 m 554 621 l 599 550 l 771 439 l 797 567 l 554 621 m 464 958 q 461 869 461 911 q 503 658 461 694 q 561 733 528 701 q 464 958 514 819 m 1221 499 q 1210 398 1221 432 q 1171 338 1199 364 q 1174 371 1174 360 q 1158 457 1174 404 q 1221 499 1185 478 m 1119 296 q 1096 397 1119 344 q 1136 439 1113 418 q 1147 372 1147 399 q 1119 296 1147 324 m 1079 376 q 1092 313 1092 333 q 1065 233 1092 263 l 1065 247 q 1046 321 1065 296 q 1079 376 1057 343 m 1068 550 l 1113 621 l 869 567 l 896 439 l 1068 550 m 1203 958 q 1106 733 1153 819 q 1164 658 1139 701 q 1206 869 1206 694 q 1203 958 1206 911 z "},"p":{"ha":1667,"x_min":415,"x_max":1251,"o":"m 839 -68 l 828 -68 q 807 28 828 -29 q 769 86 786 86 l 761 207 q 697 257 721 226 q 683 264 690 264 q 668 243 669 264 q 676 176 668 239 l 611 142 q 613 198 611 160 q 614 260 614 236 q 639 294 614 278 q 695 327 664 311 q 756 383 726 343 q 790 482 785 424 q 780 518 790 507 q 755 530 769 529 q 717 540 740 531 q 675 571 694 550 l 549 711 q 579 753 575 726 l 518 786 q 576 844 571 832 l 622 790 l 638 803 q 686 685 656 765 q 696 676 690 676 q 707 686 707 676 q 704 697 707 689 q 685 738 701 704 q 653 810 668 771 q 622 908 639 849 q 833 974 683 974 q 1044 908 983 974 q 1013 810 1028 849 q 982 738 999 771 q 963 697 965 704 q 960 686 960 689 q 971 676 960 676 q 981 685 976 676 q 1029 803 1011 765 l 1044 790 l 1090 844 q 1149 786 1096 832 l 1088 753 q 1118 711 1092 726 l 992 571 q 949 540 972 550 q 912 530 926 531 q 887 518 897 529 q 876 482 876 507 q 911 383 882 424 q 972 327 940 343 q 1028 294 1003 311 q 1053 260 1053 278 q 1054 198 1053 236 q 1056 142 1056 160 l 990 176 q 999 243 999 239 q 983 264 997 264 q 969 257 976 264 q 906 207 946 226 l 897 86 q 860 28 881 86 q 839 -68 839 -29 m 465 936 q 514 899 478 936 q 550 846 550 861 q 533 825 550 842 q 511 815 524 815 q 497 827 504 815 q 482 844 490 839 q 458 853 476 849 q 428 863 440 857 q 415 875 415 868 q 421 882 415 878 q 435 892 426 886 q 446 903 443 897 q 451 916 449 907 q 457 931 454 925 q 465 936 460 936 m 753 508 q 767 476 767 503 q 715 377 767 429 q 597 325 663 325 q 501 362 539 325 q 453 435 464 399 q 443 503 443 472 q 450 586 443 551 q 469 657 457 621 q 486 719 481 693 q 656 554 610 604 q 688 530 671 538 q 724 517 706 522 q 753 508 743 513 m 721 464 q 586 396 672 396 q 529 406 558 396 q 561 379 538 392 q 611 367 585 367 q 687 405 653 367 q 721 464 721 443 m 589 286 l 585 190 q 486 326 535 250 q 575 300 507 313 q 589 286 589 297 m 881 850 l 786 850 q 769 832 769 850 q 786 817 769 817 l 881 817 q 897 832 897 817 q 881 850 897 850 m 881 772 l 786 772 q 769 754 769 772 q 786 739 769 739 l 881 739 q 897 754 897 739 q 881 772 897 772 m 881 694 l 786 694 q 769 676 769 694 q 786 661 769 661 l 881 661 q 897 676 897 661 q 881 694 897 694 m 881 617 l 786 617 q 769 599 769 617 q 786 583 769 583 l 881 583 q 897 599 897 583 q 881 617 897 617 m 1201 936 q 1210 931 1207 936 q 1215 916 1213 925 q 1221 903 1218 907 q 1232 892 1224 897 q 1246 882 1240 886 q 1251 875 1251 878 q 1239 863 1251 868 q 1208 853 1226 857 q 1185 844 1190 849 q 1169 827 1176 839 q 1156 815 1163 815 q 1133 825 1143 815 q 1117 846 1117 842 q 1153 899 1117 861 q 1201 936 1189 936 m 914 508 q 942 517 924 513 q 978 530 961 522 q 1011 554 996 538 q 1181 719 1057 604 q 1198 657 1186 693 q 1217 586 1210 621 q 1224 503 1224 551 q 1213 435 1224 472 q 1165 362 1203 399 q 1069 325 1128 325 q 952 377 1004 325 q 900 476 900 429 q 914 508 900 503 m 946 464 q 980 405 946 443 q 1056 367 1014 367 q 1106 379 1082 367 q 1138 406 1129 392 q 1081 396 1108 396 q 946 464 994 396 m 1082 190 l 1078 286 q 1092 300 1078 297 q 1181 326 1160 313 q 1082 190 1132 250 z "},"q":{"ha":1667,"x_min":433,"x_max":1233,"o":"m 610 942 q 833 1010 711 1010 q 1057 942 956 1010 q 886 719 943 839 l 781 719 q 610 942 724 839 m 496 657 q 517 854 517 760 q 439 676 456 772 q 496 657 475 665 m 767 696 l 900 696 q 1078 926 960 818 q 1108 900 1093 917 q 1107 869 1107 890 q 1143 646 1107 803 q 833 544 914 544 q 524 646 753 544 q 560 869 560 803 q 558 900 560 890 q 589 926 575 917 q 767 696 707 818 m 833 749 l 876 835 l 790 835 l 833 749 m 494 625 q 493 593 493 614 q 519 485 493 529 q 604 440 546 440 q 776 514 686 440 q 718 424 771 453 q 669 390 686 406 q 624 332 653 374 q 468 443 550 410 q 433 608 433 521 q 435 644 433 632 q 494 625 483 629 m 611 474 q 544 510 563 474 q 525 615 525 547 q 579 592 549 604 q 628 517 579 517 q 683 550 658 517 q 742 531 714 539 q 611 474 668 474 m 828 514 l 839 514 q 929 399 858 443 q 977 363 961 379 q 1022 307 993 347 q 944 208 999 254 l 944 296 l 926 296 l 903 242 l 764 242 l 740 296 l 722 296 l 722 208 q 644 307 668 254 q 690 363 674 347 q 738 399 706 379 q 828 514 808 443 m 831 382 l 836 382 l 878 360 l 833 443 l 789 360 l 831 382 m 749 1 l 918 1 q 1004 208 996 106 q 919 124 972 147 l 896 169 l 771 169 l 747 124 q 663 208 694 147 q 749 1 671 106 m 551 186 l 664 86 q 615 300 618 185 q 525 351 564 351 q 563 246 563 282 q 551 186 563 211 m 1171 657 q 1150 854 1150 760 q 1228 676 1211 772 q 1171 657 1192 665 m 1172 625 q 1174 593 1174 614 q 1147 485 1174 529 q 1063 440 1121 440 q 890 514 981 440 q 949 424 896 453 q 997 390 981 406 q 1043 332 1014 374 q 1199 443 1117 410 q 1233 608 1233 521 q 1232 644 1233 632 q 1172 625 1183 629 m 1056 474 q 1123 510 1104 474 q 1142 615 1142 547 q 1088 592 1118 604 q 1039 517 1088 517 q 983 550 1008 517 q 925 531 953 539 q 1056 474 999 474 m 1115 186 l 1003 86 q 1051 300 1049 185 q 1142 351 1103 351 q 1104 246 1104 282 q 1115 186 1104 211 z "},"r":{"ha":1667,"x_min":368,"x_max":1299,"o":"m 749 808 q 767 798 749 808 q 833 788 785 788 q 918 808 882 788 q 954 854 954 828 q 933 878 954 874 q 833 883 911 883 q 734 878 756 883 q 713 854 713 874 q 749 808 713 828 m 833 972 l 929 972 q 1136 911 1136 972 q 1031 757 1136 846 q 833 668 926 668 q 635 757 740 668 q 531 911 531 846 q 738 972 531 972 l 833 972 m 663 374 q 694 360 663 374 q 833 346 726 346 q 1004 374 940 346 q 1068 439 1068 403 q 971 396 1015 396 l 981 443 q 1012 457 985 446 q 1061 479 1039 468 q 1103 508 1083 490 q 1124 544 1122 526 q 989 479 1085 510 l 999 531 q 1049 553 1001 532 q 1126 597 1097 575 q 1156 643 1156 619 q 1142 682 1156 668 q 1108 696 1128 696 q 1042 664 1088 696 q 938 600 996 632 q 833 568 881 568 q 728 600 786 568 q 625 664 671 632 q 558 696 579 696 q 525 682 539 696 q 511 643 511 668 q 540 597 511 619 q 617 553 569 575 q 668 531 665 532 l 678 479 q 543 544 582 510 q 564 508 544 526 q 606 479 583 490 q 655 457 628 468 q 686 443 682 446 l 696 396 q 599 439 651 396 q 663 374 599 403 m 794 244 q 807 251 794 244 q 833 258 821 258 q 873 244 846 258 q 914 231 900 231 q 937 238 925 231 q 961 261 949 246 q 982 288 974 276 q 1003 320 990 300 q 1019 346 1017 340 q 833 311 939 311 q 647 346 728 311 q 663 320 650 340 q 685 288 676 300 q 706 261 693 276 q 730 238 718 246 q 753 231 742 231 q 794 244 767 231 m 833 0 l 865 0 q 985 85 919 0 q 1097 272 1051 171 q 1165 456 1143 372 l 1119 460 q 1052 337 1078 381 q 985 246 1026 293 q 910 199 943 199 q 868 210 889 199 q 833 222 847 222 q 799 210 819 222 q 757 199 778 199 q 682 246 724 199 q 615 337 640 293 q 547 460 589 381 l 501 456 q 569 272 524 372 q 681 85 615 171 q 801 0 747 0 l 833 0 m 368 840 q 468 910 415 867 q 554 767 513 822 q 506 726 529 756 q 482 658 483 696 l 482 647 q 503 576 482 613 l 472 556 q 445 583 456 556 q 435 643 435 610 q 437 669 435 651 q 439 697 439 686 q 368 840 439 761 m 1299 840 q 1199 910 1251 867 q 1113 767 1154 822 q 1160 726 1138 756 q 1185 658 1183 696 l 1185 647 q 1164 576 1185 613 l 1194 556 q 1222 583 1211 556 q 1232 643 1232 610 q 1230 669 1232 651 q 1228 697 1228 686 q 1299 840 1228 761 z "},"s":{"ha":1667,"x_min":356,"x_max":1311,"o":"m 833 -3 l 992 200 q 973 196 985 199 q 936 188 961 193 q 895 178 911 182 q 881 174 879 174 l 1056 363 l 1042 243 l 1193 318 l 1311 835 l 1078 597 l 974 332 l 833 185 l 692 332 l 589 597 l 356 835 l 474 318 l 625 243 l 611 363 q 786 174 783 174 q 760 180 788 174 q 703 193 732 186 l 675 200 l 833 -3 m 415 710 l 551 596 l 442 604 l 415 710 m 635 136 l 806 -204 l 818 -33 l 635 136 m 438 300 l 453 133 l 628 65 l 438 300 m 833 246 l 724 376 l 540 1157 l 540 1169 l 833 361 l 1126 1169 l 1126 1157 l 943 376 l 833 246 m 1115 596 l 1251 710 l 1225 604 l 1115 596 m 1032 136 l 861 -204 l 847 -33 l 1032 136 m 1228 300 l 1214 133 l 1039 65 l 1228 300 m 700 704 l 690 749 l 929 749 l 913 704 l 700 704 m 671 622 l 661 665 l 900 665 l 883 622 l 671 622 m 708 539 l 699 583 l 869 583 l 853 539 l 708 539 z "},"t":{"ha":1667,"x_min":364,"x_max":1303,"o":"m 636 542 q 833 636 714 636 q 1031 542 953 636 l 1035 454 l 1124 454 q 1204 428 1151 443 q 1280 403 1257 414 q 1303 376 1303 392 q 1277 340 1303 363 q 1217 288 1251 318 q 1167 235 1182 258 q 1122 142 1144 200 q 1085 48 1100 83 q 1060 13 1071 13 q 1028 70 1040 13 q 1003 185 1017 128 q 965 242 989 242 q 903 213 942 242 q 833 185 864 185 q 764 213 803 185 q 701 242 725 242 q 664 185 678 242 q 638 70 650 128 q 607 13 626 13 q 581 48 596 13 q 544 142 567 83 q 500 235 522 200 q 450 288 485 258 q 390 340 415 318 q 364 376 364 363 q 387 403 364 392 q 463 428 410 414 q 543 454 515 443 l 632 454 l 636 542 m 833 0 l 994 0 l 943 208 l 938 208 l 882 146 l 833 146 l 785 146 l 729 208 l 724 208 l 672 0 l 833 0 m 607 307 l 758 307 q 753 335 758 324 q 740 351 749 346 q 713 362 731 357 q 674 370 694 367 q 620 382 654 374 q 553 401 586 390 q 607 307 574 343 m 632 575 q 699 775 632 701 q 817 849 765 849 q 732 644 732 765 q 632 575 671 619 m 374 422 q 447 763 374 649 q 614 916 511 860 q 761 972 717 972 q 619 790 663 893 q 576 497 576 686 q 466 458 543 479 q 374 422 389 436 m 908 307 l 1060 307 q 1114 401 1093 343 q 1047 382 1081 390 q 992 370 1013 374 q 954 362 972 367 q 927 351 936 357 q 913 335 918 346 q 908 307 908 324 m 1035 575 q 968 775 1035 701 q 850 849 901 849 q 935 644 935 765 q 1035 575 996 619 m 1293 422 q 1219 763 1293 649 q 1053 916 1156 860 q 906 972 950 972 q 1047 790 1004 893 q 1090 497 1090 686 q 1201 458 1124 479 q 1293 422 1278 436 z "},"u":{"ha":1667,"x_min":313,"x_max":1354,"o":"m 840 894 q 817 854 825 888 q 810 790 810 821 q 817 764 810 767 q 833 760 822 760 q 879 765 838 760 q 965 769 921 769 q 1018 758 1003 769 q 1032 718 1032 747 q 951 635 1032 635 q 892 640 933 635 q 835 646 850 646 q 773 630 794 646 q 745 592 751 614 q 719 544 739 571 q 667 501 700 517 q 608 470 635 486 q 569 449 581 454 q 547 443 558 443 q 447 575 493 443 q 415 494 415 540 q 443 372 415 451 q 468 324 450 351 q 486 288 486 296 q 488 263 488 278 q 491 238 489 249 q 500 215 493 226 q 521 183 503 210 q 556 128 539 157 q 665 67 578 89 q 636 160 643 114 q 821 285 636 285 q 940 268 858 285 q 1047 251 1022 251 q 1096 229 1067 251 q 1150 207 1125 207 q 1238 311 1183 207 q 1292 486 1292 415 q 1253 665 1292 582 q 1158 798 1215 747 q 1038 877 1100 849 q 924 906 976 906 q 840 894 860 906 m 700 444 q 752 540 700 482 q 849 606 804 599 l 854 600 q 842 590 851 597 q 828 575 833 582 q 824 563 824 568 q 840 523 824 549 q 856 490 856 497 q 789 461 856 461 q 745 453 768 461 q 700 444 722 444 m 554 300 q 544 224 547 285 l 539 229 q 528 240 533 235 l 522 246 q 554 300 535 300 m 519 694 l 390 694 l 400 688 q 575 644 515 644 q 676 656 601 644 q 825 667 750 667 q 921 661 881 667 q 976 656 961 656 q 1003 674 992 656 q 1014 710 1014 693 q 1003 740 1014 732 q 965 747 992 747 q 723 721 840 747 q 519 694 606 694 m 660 182 q 667 178 663 182 q 671 169 671 174 q 666 161 671 165 q 656 157 661 157 q 644 167 644 157 q 650 176 644 171 q 660 182 656 182 m 721 226 q 743 129 721 181 q 661 206 692 164 q 710 249 686 249 q 721 226 721 249 m 767 275 l 806 269 q 824 214 810 238 q 767 250 813 214 l 767 275 m 739 253 l 739 190 l 789 190 q 890 165 819 190 q 982 140 961 140 q 1053 169 1011 140 q 1096 210 1096 197 q 1094 215 1096 213 q 1088 220 1092 218 q 1078 224 1083 222 q 1066 227 1074 225 q 1052 231 1058 229 q 1035 233 1046 232 q 1017 235 1025 235 q 998 238 1010 236 q 978 240 986 239 q 935 247 968 242 q 886 253 903 251 l 824 253 q 844 207 844 214 q 832 193 844 193 q 780 214 803 193 q 757 253 757 235 l 739 253 m 854 971 q 643 925 746 971 q 602 913 631 919 q 549 896 574 907 q 504 864 525 885 q 449 807 467 826 q 407 753 431 788 q 368 685 383 719 q 358 649 361 668 q 353 606 356 631 q 350 569 351 582 q 345 536 349 558 q 340 498 342 514 q 338 471 338 482 q 363 354 338 422 q 435 226 381 306 q 450 196 439 221 q 478 149 461 171 q 522 110 494 128 q 603 60 571 78 q 711 21 636 42 q 869 0 786 0 q 1067 44 967 0 q 1089 54 1072 47 q 1110 63 1106 61 q 1128 72 1115 65 q 1147 81 1142 78 q 1163 91 1153 85 q 1181 103 1174 97 q 1196 117 1188 110 q 1213 135 1204 125 q 1299 268 1247 174 q 1312 304 1308 286 q 1315 347 1315 322 q 1317 381 1315 371 q 1331 539 1331 497 q 1297 703 1331 624 q 1271 751 1286 729 q 1247 781 1256 772 q 1213 810 1238 790 q 1182 836 1189 831 q 1043 932 1099 911 q 854 971 942 971 m 836 999 q 1040 965 960 999 q 1200 854 1119 931 q 1228 833 1207 849 q 1260 806 1250 817 q 1328 706 1308 754 q 1354 538 1354 633 q 1351 468 1354 517 q 1349 406 1349 419 q 1349 380 1349 397 q 1350 349 1350 363 q 1318 221 1350 278 q 1204 83 1282 154 q 1072 17 1175 56 q 1033 0 1056 10 q 1001 -13 1010 -10 q 972 -21 992 -17 q 928 -26 951 -25 q 867 -28 904 -28 q 615 17 718 -28 q 476 104 511 63 q 393 228 419 174 q 364 279 385 243 q 336 333 343 315 q 321 392 329 351 q 313 488 313 433 q 356 722 313 640 q 454 853 388 782 q 485 881 469 868 q 513 902 501 894 q 544 918 525 910 q 572 930 563 926 q 606 942 582 933 q 639 954 629 950 q 667 965 647 957 q 694 976 688 974 q 717 983 701 978 q 743 990 733 989 q 769 994 753 992 q 801 998 785 997 q 836 999 817 999 z "},"v":{"ha":1667,"x_min":307,"x_max":1360,"o":"m 807 119 l 786 119 l 786 94 q 553 207 650 110 q 440 440 457 304 l 465 440 l 465 461 l 347 461 q 490 143 358 275 q 807 1 621 11 l 807 119 m 465 514 l 347 514 q 490 832 358 700 q 807 974 621 964 l 807 856 l 786 856 l 786 881 q 554 766 651 864 q 440 535 457 668 l 465 535 l 465 514 m 833 -256 l 900 -51 l 767 -51 l 833 -256 m 307 1014 l 499 917 l 406 825 l 307 1014 m 860 119 l 881 119 l 881 94 q 1113 207 1017 110 q 1226 440 1210 304 l 1201 440 l 1201 461 l 1319 461 q 1177 143 1308 275 q 860 1 1046 11 l 860 119 m 1201 514 l 1319 514 q 1177 832 1308 700 q 860 974 1046 964 l 860 856 l 881 856 l 881 881 q 1113 766 1015 864 q 1226 535 1210 668 l 1201 535 l 1201 514 m 1360 1014 l 1168 917 l 1261 825 l 1360 1014 z "},"w":{"ha":1667,"x_min":396,"x_max":1360,"o":"m 975 924 q 950 954 956 935 q 906 935 940 947 q 821 872 821 907 q 828 846 821 858 q 836 822 836 833 q 801 766 836 807 q 760 690 767 725 q 754 644 754 669 l 768 556 q 801 574 792 556 q 811 626 810 592 q 836 569 836 626 q 806 521 836 558 q 775 458 775 483 q 794 405 775 432 q 813 357 813 378 q 810 335 813 351 q 828 371 828 335 q 819 407 828 385 q 810 449 810 429 q 816 474 810 461 q 826 493 822 488 q 847 514 831 499 q 865 531 864 529 l 913 593 q 897 618 913 617 q 869 600 882 618 q 940 693 869 663 l 940 718 q 860 758 861 722 q 885 796 858 781 q 929 814 915 813 q 917 778 917 794 q 922 761 917 767 q 990 744 932 744 q 971 699 971 722 q 1003 675 971 675 q 983 624 1003 646 q 945 588 964 603 q 926 561 926 574 q 954 570 935 561 q 981 586 974 579 q 963 531 981 554 q 925 496 946 507 q 887 472 904 485 q 869 444 869 458 l 875 385 q 961 469 914 446 l 961 406 q 926 342 926 374 q 933 305 926 322 q 949 288 940 288 q 1032 383 1032 319 l 1003 383 l 1003 417 q 1044 424 1038 417 q 1051 438 1050 429 q 1058 454 1053 447 q 1075 464 1063 460 q 1088 476 1088 468 q 1063 507 1088 507 q 1051 490 1056 507 q 1036 474 1047 474 q 1001 484 1008 474 q 994 518 994 494 q 1018 511 1000 511 q 1061 538 1057 511 q 1076 605 1061 569 q 1108 660 1092 640 q 1133 681 1125 681 l 1126 639 q 1151 583 1126 600 q 1111 547 1111 558 q 1124 504 1111 519 q 1131 519 1125 511 q 1142 530 1138 526 q 1158 543 1146 533 q 1175 556 1171 553 q 1193 585 1193 569 q 1175 619 1193 599 q 1203 651 1200 628 q 1231 627 1224 640 q 1238 583 1238 614 q 1228 553 1238 568 q 1210 530 1218 538 q 1181 507 1203 522 q 1157 489 1160 492 l 1161 433 q 1249 546 1217 475 l 1260 531 q 1251 507 1251 522 q 1265 478 1251 478 q 1288 521 1288 494 q 1279 543 1288 526 q 1271 569 1271 560 q 1292 635 1271 599 q 1233 654 1251 635 q 1215 693 1215 674 q 1233 732 1215 710 q 1167 725 1203 732 q 1115 718 1131 718 q 1086 734 1100 718 q 1072 765 1072 750 q 1083 806 1072 790 q 1111 833 1093 821 q 1136 853 1129 844 q 1088 867 1136 867 q 1108 926 1088 904 q 1076 919 1107 926 q 1035 908 1044 911 q 998 898 1025 906 q 956 884 971 890 q 923 867 942 878 q 890 846 904 857 q 923 892 897 869 q 975 924 949 915 m 697 -124 l 664 174 l 699 172 l 738 -147 l 697 -124 m 636 168 l 668 -106 l 631 -83 l 615 50 l 556 50 l 544 74 l 611 74 l 597 206 l 636 168 m 1049 174 l 1015 -124 l 975 -147 l 1014 172 l 1049 174 m 1046 -106 l 1078 168 l 1117 206 l 1103 74 l 1168 74 l 1158 50 l 1097 50 l 1083 -83 l 1046 -106 m 514 651 q 531 613 517 632 q 544 586 544 593 q 538 562 544 578 q 532 536 532 546 q 567 543 547 536 q 588 563 588 550 q 578 585 588 572 q 568 611 568 599 q 573 633 568 622 q 586 655 578 643 q 597 675 594 667 q 614 618 614 656 q 611 553 614 568 q 544 493 607 536 q 568 393 544 393 q 558 428 558 410 q 581 466 558 451 q 625 483 603 481 l 646 486 q 638 560 646 546 q 690 540 658 560 q 721 501 721 521 q 690 476 721 488 q 658 447 658 465 q 693 421 658 428 q 728 404 728 414 q 722 397 728 400 q 707 391 715 393 q 690 388 699 389 q 675 384 681 386 q 669 381 669 382 q 699 353 669 379 q 728 308 728 328 q 719 301 728 301 q 650 326 704 301 l 628 274 l 674 225 l 758 225 l 819 -196 l 768 -165 l 726 196 l 663 200 l 619 246 l 535 250 l 544 271 l 597 278 l 622 324 l 560 350 l 494 275 l 514 157 l 579 157 l 571 136 l 518 136 l 536 -7 l 601 -49 l 601 -67 l 486 1 l 463 288 l 536 358 q 524 383 536 371 q 498 417 511 394 q 485 474 485 439 q 497 532 485 515 q 510 556 510 549 q 503 578 510 567 q 496 594 496 590 q 504 622 496 604 q 514 651 513 639 m 1086 274 l 1060 333 q 1071 354 1071 342 l 1071 360 q 1045 347 1053 360 q 1032 313 1038 333 q 1015 285 1026 293 q 933 260 982 260 q 910 258 918 260 q 894 249 901 257 q 888 225 888 240 l 924 225 l 857 -261 l 790 225 l 826 225 q 819 257 826 244 q 811 278 811 269 q 836 300 811 300 l 836 311 l 793 311 q 798 297 793 304 q 803 278 803 289 q 769 243 803 243 q 689 275 731 243 q 742 292 724 275 q 760 365 760 308 q 740 566 760 451 q 690 714 721 681 q 669 697 686 704 q 642 690 651 690 q 633 732 640 707 q 625 771 625 757 q 644 835 625 796 q 601 786 626 829 q 572 747 589 764 q 543 731 554 731 q 522 764 522 731 q 507 722 507 756 q 466 656 507 696 q 425 578 425 615 q 467 515 425 535 l 461 485 q 439 503 456 490 q 416 524 422 517 q 403 544 410 531 q 396 574 396 558 q 415 636 396 607 q 450 676 433 665 q 481 715 472 696 q 492 751 490 735 q 496 774 493 768 q 543 813 510 800 q 539 793 539 800 q 560 771 539 771 q 576 783 565 771 q 601 815 586 794 q 622 844 615 836 q 696 876 649 876 q 647 779 656 850 q 658 731 647 760 q 681 747 660 732 q 722 761 701 761 q 783 783 758 761 q 807 829 807 807 q 801 850 807 835 q 794 878 794 865 q 799 894 794 886 q 810 909 803 903 q 826 921 818 915 q 848 933 835 926 q 871 942 861 939 q 896 952 881 946 q 918 961 911 958 q 935 984 926 965 q 960 1020 944 1003 q 1003 1040 976 1038 q 967 986 967 1017 q 983 944 967 963 q 1024 926 1000 926 q 1079 940 1043 926 q 1150 954 1115 954 q 1115 885 1115 925 q 1131 880 1121 882 q 1149 874 1140 878 q 1169 858 1158 869 q 1138 827 1160 846 q 1108 797 1117 808 q 1100 774 1100 786 q 1129 742 1100 742 q 1202 766 1158 742 q 1286 790 1246 790 q 1339 765 1319 790 q 1246 704 1246 749 q 1258 672 1246 685 q 1289 660 1269 660 q 1360 683 1333 660 q 1330 632 1360 665 q 1300 583 1300 599 q 1305 547 1300 563 q 1315 524 1310 532 q 1319 514 1319 515 q 1301 485 1319 513 q 1282 442 1282 458 q 1176 358 1176 406 l 1250 288 l 1226 1 l 1111 -67 l 1111 -49 l 1176 -7 l 1194 136 l 1143 136 l 1135 157 l 1200 157 l 1218 275 l 1153 350 l 1092 324 l 1117 278 l 1168 271 l 1178 250 l 1094 246 l 1051 200 l 988 196 l 946 -165 l 893 -196 l 956 225 l 1039 225 l 1086 274 z "},"x":{"ha":1667,"x_min":250,"x_max":1417,"o":"m 692 722 l 975 722 l 1296 1047 l 1289 850 l 1072 636 l 1072 576 l 1417 867 l 1346 307 l 1283 592 l 1174 514 l 1174 374 l 833 -32 l 493 374 l 493 514 l 383 592 l 321 307 l 250 867 l 594 576 l 594 636 l 378 850 l 371 1047 l 692 722 m 607 450 l 714 249 l 806 296 l 607 450 m 953 249 l 1060 450 l 861 296 l 953 249 z "},"y":{"ha":1667,"x_min":268,"x_max":1222,"o":"m 772 588 l 679 424 l 906 424 l 906 404 l 713 278 l 525 385 l 525 600 l 713 708 l 751 686 l 844 847 l 713 924 l 340 708 l 340 278 l 713 63 l 1071 278 l 1071 588 l 772 588 m 810 654 l 1143 654 l 1143 238 l 713 -19 l 268 238 l 268 750 l 713 1007 l 939 876 l 810 654 m 1222 706 l 908 706 l 1025 908 l 1222 794 l 1222 706 z "},"z":{"ha":1667,"x_min":-114,"x_max":1782,"o":"m 835 383 q 933 423 893 383 q 974 521 974 463 q 933 618 974 578 q 835 658 893 658 q 738 618 778 658 q 697 521 697 578 q 738 423 697 463 q 835 383 778 383 m 1140 399 l 835 193 l 529 399 l 564 521 l 119 917 l 622 675 l 542 1015 l 719 753 l 835 876 l 950 753 l 1128 1015 l 1047 675 l 1550 917 l 1106 521 l 1140 399 m 1042 85 l 835 -110 l 626 85 l 740 132 l -114 521 l 526 521 l 489 385 l 835 150 l 1179 385 l 1143 521 l 1782 521 l 928 132 l 1042 85 z "},"ä":{"ha":1667,"x_min":0,"x_max":0,"o":""}}}
